# xmcd
#
# Track frame offsets: 
#        183
#        20548
#        32465
#        40125
#        49615
#        61503
#        67798
#        72155
#        76285
#        79245
#        83793
#        87840
#        97710
#        106200
#        115095
#        123283
#        134878
#        144148
#        155838
#        162083
#        172260
#        178333
#        185578
#        190765
#        211630
#        232703
#
# Disc length: 3371 seconds
#
# Revision: 1
# Processed by: cddbd v1.5.1PL0 Copyright (c) Steve Scherf et al.
# Submitted via: ExactAudioCopy v0.95a5
#
DISCID=470d291a
DTITLE=Stivin Jiri - Fletny v Barokni hudbe
DYEAR=1992
DGENRE=Classical
TTITLE0=Giovanni Battista Fontana - Sonata III C Dur pro sopranovou zo
TTITLE0=bcovou fletnu a varhany
TTITLE1=Georg Phillip Telemann - Sonata II C dur - Adagio, Allegro
TTITLE2=Larghetto
TTITLE3=Vivace
TTITLE4=Sonata II G minor pro sopranovou zobcovou fletnu a varhany - O
TTITLE4=uverture
TTITLE5=Allemande
TTITLE6=Courante
TTITLE7=Sarabende
TTITLE8=Gavotte
TTITLE9=Menuet
TTITLE10=Gigue
TTITLE11=Georg Phillipp  TelemannSonata F moll - Triste
TTITLE12=Allegro
TTITLE13=Andante
TTITLE14=Vivace
TTITLE15=jean Baptiste loeillet de Gant =Sonata I A moll - Adagio
TTITLE16=Allegro
TTITLE17=Adagio
TTITLE18=Giga (Allegro)
TTITLE19=Johann Christian Pepusch - Sonata II D moll - Largo
TTITLE20=Allegro
TTITLE21=Largo
TTITLE22=Allegro
TTITLE23=Johann Sebastian Bach - Sonata III D moll - Andante
TTITLE24=Adagio e dolce
TTITLE25=Vivace
EXTD=YEAR: 1992
EXTT0=
EXTT1=
EXTT2=
EXTT3=
EXTT4=
EXTT5=
EXTT6=
EXTT7=
EXTT8=
EXTT9=
EXTT10=
EXTT11=
EXTT12=
EXTT13=
EXTT14=
EXTT15=
EXTT16=
EXTT17=
EXTT18=
EXTT19=
EXTT20=
EXTT21=
EXTT22=
EXTT23=
EXTT24=
EXTT25=
PLAYORDER=
